<svg xmlns="http://www.w3.org/2000/svg" width="704" height="501" viewBox="0 0 704 501">
  <path fill="none" stroke="#4A494A" stroke-width="2" d="M702.943463,413.36515 C699.433719,301.569876 645.786841,182.931869 562.943868,103.747348 L562.910283,103.714655 C515.804876,60.0865118 459.255812,28.5631494 394.836782,10.0221206 C354.486728,-1.59484396 272.050055,-3.83203022 192.570542,14.3711694 C69.557989,42.5429108 22.6063852,101.406634 4.88181503,145.83031 C-10.0440132,183.234424 18.1187873,232.209129 88.5822424,291.383638 C140.360187,334.8673 197.098992,368.178318 197.625113,368.486265 C278.942526,417.967743 376.194411,459.364034 464.44505,482.058257 C496.535756,490.309714 543.573741,500 587.486315,500 C620.204022,500 651.18971,494.618023 672.940573,479.254177 C693.761667,464.544349 703.854041,442.376044 702.943463,413.36515 Z" transform="rotate(180 352 250.5)"/>
</svg>
