<svg xmlns="http://www.w3.org/2000/svg" xmlns:xlink="http://www.w3.org/1999/xlink" width="133" height="20" viewBox="0 0 133 20">
  <desc>Tartine Logo in Black</desc>
  <defs>
    <polygon id="tartine-logo-a" points=".523 .019 11.679 .019 11.679 19.459 .523 19.459"/>
    <polygon id="tartine-logo-c" points=".178 .019 11.026 .019 11.026 19.459 .178 19.459"/>
    <polygon id="tartine-logo-e" points=".209 .028 11.058 .028 11.058 19.459 .209 19.459"/>
  </defs>
  <g fill="none" fill-rule="evenodd">
    <path fill="#4A494A" d="M29.3243374,13.0710811 L23.3717764,13.0710811 C23.2690528,13.0710811 23.1917398,12.9786486 23.2095813,12.8781081 L24.949935,3.23162162 C24.9856179,2.98081081 25.0705,2.77054054 25.205122,2.59972973 C25.3397439,2.43 25.5322154,2.34459459 25.7836179,2.34459459 L26.9124959,2.34459459 C27.1633577,2.34459459 27.3563699,2.43 27.4909919,2.59972973 C27.5731707,2.70405405 27.6304797,2.82891892 27.6758943,2.96297297 L29.1329472,10.9186486 L29.4859919,12.8781081 C29.504374,12.9786486 29.4265203,13.0710811 29.3243374,13.0710811 Z M29.1388943,1.3472973 C29.083748,1.15324324 28.9756179,0.978648649 28.8085569,0.825675676 C28.6020285,0.638108108 28.3733333,0.543513514 28.1224715,0.543513514 L24.5466098,0.543513514 C24.2952073,0.543513514 24.071378,0.638108108 23.8740407,0.825675676 C23.7140081,0.978648649 23.6096626,1.15324324 23.5561382,1.3472973 L20.161935,19.8472973 C20.151122,19.9067568 20.1970772,19.9624324 20.2576301,19.9624324 L21.824435,19.9624324 C21.8714715,19.9624324 21.9120203,19.9289189 21.9201301,19.8824324 L22.7776016,15.2440541 C22.8208537,14.9975676 23.0344106,14.8186486 23.2841911,14.8186486 L29.3875935,14.8186486 C29.6362927,14.8186486 29.8487683,14.9964865 29.8936423,15.2408108 L30.7505732,19.7510811 C30.8078821,19.9510811 30.8268049,19.9624324 31.0035976,19.9624324 L32.4136138,19.9624324 C32.4866016,19.9624324 32.541748,19.8964865 32.5282317,19.8245946 L29.5114024,3.35 L29.1388943,1.3472973 Z"/>
    <g transform="translate(98.398 .521)">
      <mask id="tartine-logo-b" fill="#fff">
        <use xlink:href="#tartine-logo-a"/>
      </mask>
      <path fill="#4A494A" d="M11.5243419,0.0193513514 L11.5119069,0.0193513514 L11.4162118,0.0193513514 L10.0694516,0.0193513514 L10.056476,0.0193513514 L9.96132154,0.0193513514 C9.87589878,0.0193513514 9.80669553,0.0885405405 9.80669553,0.173945946 C9.80669553,0.173945946 9.78615081,8.91772973 9.78128496,14.1885405 C9.78074431,14.3917838 9.51744756,14.4723243 9.40391098,14.3036757 L2.7263378,2.33664865 C2.45330935,1.93556757 2.30625244,1.46259459 2.30354919,0.97827027 L2.28084187,0.0901621622 C2.27327276,0.0447567568 2.21326057,0.0193513514 2.16081748,0.0193513514 L0.705386585,0.0193513514 C0.620504472,0.0193513514 0.550760569,0.0885405405 0.550760569,0.173945946 L0.522646748,19.3047568 C0.522646748,19.3901622 0.59185,19.4593514 0.677813415,19.4593514 L2.16081748,19.4593514 C2.24624024,19.4593514 2.3154435,19.3901622 2.3154435,19.3047568 L2.3154435,5.90691892 C2.3154435,5.70313514 2.57928089,5.62259459 2.69281748,5.79178378 L9.57097195,17.7388108 C9.74992724,18.0766486 9.78128496,18.0766486 9.81264268,18.528 C9.81264268,18.5696216 9.81480528,19.0107027 9.81588659,19.280973 C9.81642724,19.3804324 9.89698415,19.4593514 9.99646382,19.4593514 L11.4162118,19.4593514 L11.5119069,19.4593514 L11.5243419,19.4593514 C11.6097646,19.4593514 11.6789679,19.3901622 11.6789679,19.3047568 L11.6789679,0.173945946 C11.6789679,0.0885405405 11.6097646,0.0193513514 11.5243419,0.0193513514" mask="url(#tartine-logo-b)"/>
    </g>
    <g transform="translate(43.252 .521)">
      <mask id="tartine-logo-d" fill="#fff">
        <use xlink:href="#tartine-logo-c"/>
      </mask>
      <path fill="#4A494A" d="M5.70391585,9.48783784 L2.17617195,9.49378378 C2.06101341,9.49378378 1.96748089,9.40027027 1.96748089,9.28513514 L1.96748089,2.06675676 C1.96748089,1.93216216 2.07669228,1.82351351 2.21077358,1.82351351 L5.02107439,1.82351351 L5.02107439,1.82243243 L6.0293874,1.82243243 C6.46677358,1.82243243 6.88739959,1.98945946 7.20530203,2.28945946 L7.94112724,2.98189189 C8.28552154,3.30567568 8.48123699,3.75810811 8.48123699,4.23108108 L8.48123699,6.95378378 C8.48123699,7.49864865 8.22226545,8.01216216 7.78325732,8.33540541 L6.63761911,9.18081081 C6.3672939,9.38027027 6.04020041,9.48783784 5.70391585,9.48783784 Z M9.78798902,13.9591892 C9.66526138,13.4467568 9.41385894,12.9689189 9.06027358,12.5797297 L7.45129797,10.8056757 C7.46968008,10.7932432 7.48968415,10.7840541 7.50698496,10.7710811 L9.29978171,9.44891892 C9.91504187,8.99540541 10.2778183,8.27702703 10.2778183,7.51324324 L10.2778183,3.75378378 C10.2778183,3.09054054 10.0042492,2.45702703 9.52144837,2.00243243 L8.11575732,0.679189189 C7.67080203,0.25972973 7.08203374,0.0262162162 6.47001748,0.0262162162 L5.02107439,0.0262162162 L5.02107439,0.0224324324 L0.693167886,0.0191891892 C0.410948374,0.0191891892 0.182793902,0.247837838 0.182793902,0.529459459 L0.182793902,0.726756757 C0.171980894,0.785135135 0.182793902,19.2986486 0.182793902,19.2986486 C0.182793902,19.4424324 0.207123171,19.4591892 0.41905813,19.4591892 L1.80204187,19.4591892 C1.88205813,19.4591892 1.94747683,19.3943243 1.94747683,19.3143243 L1.94747683,11.422973 C1.94747683,11.322973 2.02857439,11.2408108 2.12913537,11.2408108 L5.12379797,11.2402703 C5.31248496,11.2402703 5.49252154,11.3202703 5.61903374,11.4597297 L7.72919228,13.7862162 C7.88003374,13.9527027 7.98762317,14.157027 8.03952561,14.3743243 L9.17921667,19.2489189 C9.20624919,19.3640541 9.30843211,19.4451351 9.42683455,19.4451351 L10.8568549,19.4451351 C10.9655256,19.4451351 11.0460825,19.3435135 11.0212126,19.2375676 L9.78798902,13.9591892 Z" mask="url(#tartine-logo-d)"/>
    </g>
    <path fill="#4A494A" d="M86.2499593.596432432L84.8285894.596432432C84.7145122.596432432 84.622061.688864865 84.622061.802378378L84.622061 19.7748108C84.622061 19.8877838 84.7145122 19.9802162 84.8285894 19.9802162L86.2499593 19.9802162C86.3634959 19.9802162 86.4559472 19.8877838 86.4559472 19.7748108L86.4559472.802378378C86.4559472.688864865 86.3634959.596432432 86.2499593.596432432M11.8532736.578702703L.148732927.578702703C.066554065.578702703.0000540650407.645189189.0000540650407.727351351L.0000540650407 2.19437838C.0000540650407 2.27654054.066554065 2.34302703.148732927 2.34302703L4.7691313 2.34302703C4.9621435 2.34302703 5.11839146 2.49924324 5.11839146 2.69221622L5.11839146 19.8365405C5.11839146 19.9100541 5.1724565 19.9678919 5.24165976 19.9803243L6.79332642 19.9803243C6.86307033 19.9678919 6.91659472 19.9100541 6.91659472 19.8365405L6.91983862 2.69221622C6.91983862 2.49924324 7.07662724 2.34302703 7.26909878 2.34302703L11.8532736 2.34302703C11.9354524 2.34302703 12.0019524 2.27654054 12.0019524 2.19437838L12.0019524.727351351C12.0019524.645189189 11.9354524.578702703 11.8532736.578702703M74.1133309.578702703L62.4087902.578702703C62.3266114.578702703 62.2601114.645189189 62.2601114.727351351L62.2601114 2.19437838C62.2601114 2.27654054 62.3266114 2.34302703 62.4087902 2.34302703L67.0291886 2.34302703C67.2222008 2.34302703 67.3784488 2.49924324 67.3784488 2.69221622L67.3784488 19.8365405C67.3784488 19.9100541 67.4319732 19.9678919 67.5017171 19.9803243L69.0533837 19.9803243C69.122587 19.9678919 69.1761114 19.9100541 69.1761114 19.8365405L69.1798959 2.69221622C69.1798959 2.49924324 69.3366846 2.34302703 69.5291561 2.34302703L74.1133309 2.34302703C74.1955098 2.34302703 74.2620098 2.27654054 74.2620098 2.19437838L74.2620098.727351351C74.2620098.645189189 74.1955098.578702703 74.1133309.578702703"/>
    <g transform="translate(121.646 .521)">
      <mask id="tartine-logo-f" fill="#fff">
        <use xlink:href="#tartine-logo-e"/>
      </mask>
      <path fill="#4A494A" d="M2.4526065,1.79248649 L10.9094602,1.79248649 C10.991639,1.79248649 11.058139,1.726 11.058139,1.64383784 L11.058139,0.176810811 C11.058139,0.0946486486 10.991639,0.0281621622 10.9094602,0.0281621622 L0.358126829,0.0281621622 C0.275947967,0.0281621622 0.209447967,0.0946486486 0.209447967,0.176810811 L0.209447967,1.64383784 L0.209447967,19.3108649 C0.209447967,19.393027 0.275947967,19.4595135 0.358126829,19.4595135 L10.8894561,19.4595135 C10.971635,19.4595135 11.038135,19.393027 11.038135,19.3103243 L11.038135,17.8438378 C11.038135,17.818973 11.0397569,17.7578919 11.0397569,17.7578919 C11.0397569,17.6692432 10.9678504,17.5973514 10.8791837,17.5973514 L2.4526065,17.5984324 C2.21958618,17.5984324 2.03089919,17.4097838 2.03089919,17.1768108 L2.03792764,10.7762703 C2.03792764,10.5432973 2.22715528,10.3546486 2.45963496,10.3546486 L7.44821626,10.3384324 C7.53039512,10.3384324 7.59689512,10.2714054 7.59689512,10.1892432 L7.59689512,8.72221622 C7.59689512,8.64005405 7.53039512,8.57356757 7.44821626,8.57356757 L2.4526065,8.57356757 C2.21958618,8.57356757 2.03089919,8.38437838 2.03089919,8.15194595 L2.03089919,2.21410811 C2.03089919,1.98167568 2.21958618,1.79248649 2.4526065,1.79248649" mask="url(#tartine-logo-f)"/>
    </g>
  </g>
</svg>
